<svg xmlns="http://www.w3.org/2000/svg" viewBox="0 0 600 600" role="img" aria-labelledby="t">
  <title id="t">Breakfast in bed: an ensaïmada and cava by the balcony</title>
  <defs>
    <linearGradient id="bg" x1="0" y1="0" x2="1" y2="1"><stop offset="0" stop-color="#9ae6e0"/><stop offset="1" stop-color="#ffc3d6"/></linearGradient>
  </defs>
  <rect width="600" height="600" fill="url(#bg)"/>
  <!-- window -->
  <rect x="340" y="40" width="220" height="280" fill="#56c3ea"/><rect x="340" y="220" width="220" height="100" fill="#1f7fc2"/>
  <rect x="340" y="40" width="220" height="280" fill="none" stroke="#fff" stroke-width="12"/><line x1="450" y1="40" x2="450" y2="320" stroke="#fff" stroke-width="8"/>
  <circle cx="400" cy="100" r="26" fill="#fff3a0"/>
  <!-- tray -->
  <ellipse cx="270" cy="420" rx="250" ry="120" fill="#fff"/>
  <ellipse cx="270" cy="420" rx="250" ry="120" fill="none" stroke="#ff3d7f" stroke-width="6"/>
  <!-- ensaimada spiral -->
  <g transform="translate(220 420)">
    <ellipse cx="0" cy="0" rx="150" ry="80" fill="#e3a458"/>
    <ellipse cx="0" cy="-6" rx="140" ry="72" fill="#f2c27c"/>
    <path d="M0 -6 m-10 0 a10 6 0 1 1 20 0 a25 15 0 1 1 -50 0 a45 27 0 1 1 90 0 a70 42 0 1 1 -140 0 a95 55 0 1 1 190 0 a118 66 0 1 1 -236 0" fill="none" stroke="#c98a45" stroke-width="5"/>
    <g fill="#fff" opacity=".9"><circle cx="-60" cy="-30" r="3"/><circle cx="-20" cy="-40" r="3"/><circle cx="30" cy="-25" r="3"/><circle cx="70" cy="-5" r="3"/><circle cx="-80" cy="10" r="3"/><circle cx="10" cy="20" r="3"/><circle cx="60" cy="30" r="3"/><circle cx="-40" cy="35" r="3"/><circle cx="100" cy="-35" r="3"/></g>
  </g>
  <!-- cava -->
  <g transform="translate(430 300)">
    <path d="M0 0 h44 c0 70 -8 100 -22 100 c-14 0 -22 -30 -22 -100z" fill="#ffe07a" stroke="#fff" stroke-width="3"/>
    <rect x="19" y="100" width="6" height="50" fill="#fff"/><ellipse cx="22" cy="152" rx="24" ry="6" fill="#fff"/>
    <g fill="#fff"><circle cx="15" cy="30" r="3"/><circle cx="26" cy="50" r="2.5"/><circle cx="20" cy="70" r="2"/></g>
  </g>
  <!-- hibiscus -->
  <g transform="translate(90 170)" fill="#ff3d7f">
    <circle cx="0" cy="-26" r="22"/><circle cx="25" cy="-8" r="22"/><circle cx="15" cy="22" r="22"/><circle cx="-15" cy="22" r="22"/><circle cx="-25" cy="-8" r="22"/>
    <circle cx="0" cy="0" r="10" fill="#ffd166"/>
  </g>
</svg>
